<svg width="22" height="21" viewBox="0 0 22 21" fill="none" xmlns="http://www.w3.org/2000/svg">
<path d="M20.9007 7.78733L14.7345 6.86902L11.978 1.14269C11.9027 0.985908 11.7788 0.858988 11.6258 0.781841C11.2421 0.587728 10.7758 0.749489 10.584 1.14269L7.82749 6.86902L1.66125 7.78733C1.49125 7.81221 1.33582 7.89434 1.21682 8.01877C1.07295 8.17029 0.993674 8.37415 0.996406 8.58553C0.999139 8.79692 1.08366 8.99855 1.23139 9.14612L5.69274 13.6032L4.63873 19.897C4.61401 20.0434 4.62982 20.194 4.68436 20.3316C4.73891 20.4693 4.83001 20.5886 4.94733 20.6759C5.06465 20.7632 5.20349 20.8151 5.34812 20.8256C5.49275 20.8362 5.63738 20.805 5.7656 20.7357L11.281 17.7642L16.7963 20.7357C16.9469 20.8178 17.1218 20.8452 17.2893 20.8153C17.7119 20.7406 17.9961 20.33 17.9232 19.897L16.8692 13.6032L21.3306 9.14612C21.452 9.02418 21.5321 8.8649 21.5564 8.6907C21.622 8.25519 21.3257 7.85203 20.9007 7.78733Z" fill="#FEA250"/>
</svg>
